<svg width="157" height="75" xmlns="http://www.w3.org/2000/svg" fill="none">
 <defs>
  <linearGradient y2="1.79372" x2="0.65621" y1="-0.35379" x1="0" id="paint0_linear">
   <stop stop-color="#485BFF"/>
   <stop stop-color="#FF59F8" offset="1"/>
  </linearGradient>
  <linearGradient y2="1.79372" x2="-0.34358" y1="-0.35379" x1="-1.12957" id="paint1_linear">
   <stop stop-color="#485BFF"/>
   <stop stop-color="#FF59F8" offset="1"/>
  </linearGradient>
  <linearGradient y2="1.6034" x2="-1.0401" y1="0" x1="-1.6578" id="paint2_linear">
   <stop stop-color="#485BFF"/>
   <stop stop-color="#FF59F8" offset="1"/>
  </linearGradient>
  <linearGradient y2="1.08039" x2="0.82352" y1="0" x1="0" id="paint3_linear">
   <stop stop-color="#485BFF"/>
   <stop stop-color="#FF59F8" offset="1"/>
  </linearGradient>
 </defs>
 <g>
  <title>Layer 1</title>
  <path id="svg_1" fill="#ffffff" d="m0,18.999l4.47282,0l0,21.2745l-4.47282,0l0,-21.2745z"/>
  <path id="svg_2" fill="#ffffff" d="m22.5872,32.6181c0,0.0574 -0.0287,0.4588 -0.086,1.2042l-11.6695,0c0.2103,0.9558 0.7072,1.7108 1.4909,2.2651c0.7837,0.5543 1.7586,0.8315 2.9246,0.8315c0.8028,0 1.51,-0.1147 2.1217,-0.3441c0.6308,-0.2484 1.2138,-0.6307 1.749,-1.1468l2.3798,2.5804c-1.4528,1.663 -3.5745,2.4945 -6.3652,2.4945c-1.7394,0 -3.2782,-0.3345 -4.6162,-1.0035c-1.338,-0.6881 -2.37019,-1.6343 -3.09655,-2.8385c-0.72635,-1.2043 -1.08953,-2.571 -1.08953,-4.1001c0,-1.5101 0.35362,-2.8672 1.06086,-4.0714c0.72636,-1.2234 1.71076,-2.1695 2.95322,-2.8386c1.2616,-0.6881 2.6665,-1.0321 4.2148,-1.0321c1.51,0 2.8767,0.3249 4.1,0.9748c1.2234,0.6499 2.1791,1.5865 2.8672,2.8098c0.7073,1.2043 1.0609,2.6092 1.0609,4.2148zm-7.9995,-4.6162c-1.013,0 -1.8636,0.2868 -2.5518,0.8602c-0.6881,0.5734 -1.1086,1.3571 -1.2615,2.3511l7.598,0c-0.1529,-0.9748 -0.5734,-1.749 -1.2615,-2.3224c-0.6882,-0.5926 -1.5292,-0.8889 -2.5232,-0.8889z"/>
  <path id="svg_3" fill="#ffffff" d="m34.3673,39.5281c-0.4396,0.3249 -0.9844,0.5734 -1.6343,0.7454c-0.6308,0.1529 -1.2998,0.2294 -2.007,0.2294c-1.835,0 -3.2591,-0.4683 -4.2721,-1.4049c-0.994,-0.9366 -1.491,-2.3129 -1.491,-4.1288l0,-6.3365l-2.3797,0l0,-3.4406l2.3797,0l0,-3.756l4.4728,0l0,3.756l3.8421,0l0,3.4406l-3.8421,0l0,6.2792c0,0.6499 0.1625,1.1564 0.4875,1.5196c0.344,0.344 0.8219,0.5161 1.4336,0.5161c0.7072,0 1.3093,-0.1912 1.8063,-0.5735l1.2042,3.154z"/>
  <path id="svg_4" fill="#ffffff" d="m55.4862,24.6187c1.9306,0 3.4597,0.5734 4.5875,1.7203c1.1469,1.1277 1.7203,2.8289 1.7203,5.1036l0,8.8309l-4.4728,0l0,-8.1428c0,-1.2233 -0.2581,-2.1313 -0.7741,-2.7238c-0.497,-0.6117 -1.2138,-0.9175 -2.1504,-0.9175c-1.0513,0 -1.8828,0.344 -2.4945,1.0322c-0.6117,0.669 -0.9175,1.6725 -0.9175,3.0105l0,7.7414l-4.4728,0l0,-8.1428c0,-2.4276 -0.9749,-3.6413 -2.9246,-3.6413c-1.0321,0 -1.8541,0.344 -2.4657,1.0322c-0.6117,0.669 -0.9175,1.6725 -0.9175,3.0105l0,7.7414l-4.4729,0l0,-15.4255l4.2722,0l0,1.7777c0.5734,-0.6499 1.2711,-1.1469 2.093,-1.4909c0.8411,-0.3441 1.7586,-0.5161 2.7525,-0.5161c1.0895,0 2.0739,0.2198 2.9532,0.6594c0.8793,0.4205 1.5865,1.0418 2.1217,1.8637c0.6308,-0.8028 1.4241,-1.4241 2.3798,-1.8637c0.9749,-0.4396 2.0357,-0.6594 3.1826,-0.6594z"/>
  <path id="svg_5" fill="#ffffff" d="m79.9344,32.6181c0,0.0574 -0.0287,0.4588 -0.086,1.2042l-11.6695,0c0.2102,0.9558 0.7072,1.7108 1.4909,2.2651c0.7837,0.5543 1.7586,0.8315 2.9246,0.8315c0.8028,0 1.51,-0.1147 2.1217,-0.3441c0.6308,-0.2484 1.2138,-0.6307 1.749,-1.1468l2.3797,2.5804c-1.4527,1.663 -3.5744,2.4945 -6.3651,2.4945c-1.7395,0 -3.2782,-0.3345 -4.6162,-1.0035c-1.338,-0.6881 -2.3702,-1.6343 -3.0966,-2.8385c-0.7263,-1.2043 -1.0895,-2.571 -1.0895,-4.1001c0,-1.5101 0.3536,-2.8672 1.0609,-4.0714c0.7263,-1.2234 1.7107,-2.1695 2.9532,-2.8386c1.2615,-0.6881 2.6664,-1.0321 4.2147,-1.0321c1.5101,0 2.8768,0.3249 4.1001,0.9748c1.2234,0.6499 2.1791,1.5865 2.8672,2.8098c0.7072,1.2043 1.0609,2.6092 1.0609,4.2148zm-7.9995,-4.6162c-1.0131,0 -1.8637,0.2868 -2.5518,0.8602c-0.6881,0.5734 -1.1086,1.3571 -1.2616,2.3511l7.5981,0c-0.1529,-0.9748 -0.5734,-1.749 -1.2616,-2.3224c-0.6881,-0.5926 -1.5291,-0.8889 -2.5231,-0.8889z"/>
  <path id="svg_6" fill="url(#paint0_linear)" d="m106.086,24.848l-3.068,15.4255l-4.2433,0l0.2868,-1.5196c-1.2807,1.166 -2.8577,1.749 -4.7309,1.749c-1.2042,0 -2.3129,-0.2772 -3.3259,-0.8315c-1.0131,-0.5543 -1.8255,-1.3476 -2.4372,-2.3798c-0.5925,-1.0513 -0.8888,-2.2842 -0.8888,-3.6986c0,-1.7012 0.3727,-3.2304 1.1182,-4.5875c0.7646,-1.3763 1.7968,-2.4467 3.0966,-3.2113c1.2998,-0.7837 2.7334,-1.1755 4.3008,-1.1755c2.3702,0 4.0427,0.7741 5.0177,2.3224l0.401,-2.0931l4.473,0zm-10.3792,11.9562c0.8793,0 1.663,-0.2102 2.3511,-0.6308c0.6882,-0.4396 1.2234,-1.0417 1.6057,-1.8063c0.3824,-0.7646 0.5734,-1.6438 0.5734,-2.6378c0,-1.0513 -0.3154,-1.8828 -0.9462,-2.4945c-0.6116,-0.6116 -1.4718,-0.9175 -2.5804,-0.9175c-0.8793,0 -1.663,0.2199 -2.3511,0.6595c-0.6882,0.4205 -1.2234,1.0131 -1.6057,1.7776c-0.3823,0.7646 -0.5734,1.6439 -0.5734,2.6379c0,1.0513 0.3058,1.8828 0.9175,2.4944c0.6308,0.6117 1.5005,0.9175 2.6091,0.9175z"/>
  <path id="svg_7" fill="url(#paint1_linear)" d="m111.632,40.5029c-1.338,0 -2.609,-0.1434 -3.813,-0.4301c-1.185,-0.3058 -2.112,-0.6977 -2.781,-1.1755l1.72,-3.24c0.669,0.4397 1.481,0.7933 2.437,1.0609c0.975,0.2676 1.95,0.4014 2.924,0.4014c1.014,0 1.769,-0.1242 2.266,-0.3727c0.497,-0.2676 0.745,-0.6404 0.745,-1.1182c0,-0.3823 -0.22,-0.6595 -0.659,-0.8315c-0.44,-0.172 -1.147,-0.3536 -2.122,-0.5448c-1.109,-0.2102 -2.026,-0.4396 -2.753,-0.6881c-0.707,-0.2485 -1.328,-0.6499 -1.863,-1.2042c-0.516,-0.5735 -0.774,-1.3476 -0.774,-2.3225c0,-1.7012 0.707,-3.0296 2.121,-3.9853c1.434,-0.9558 3.307,-1.4336 5.62,-1.4336c1.07,0 2.112,0.1146 3.125,0.344c1.013,0.2294 1.873,0.5448 2.581,0.9462l-1.606,3.2686c-1.262,-0.7837 -2.781,-1.1756 -4.559,-1.1756c-0.975,0 -1.72,0.1434 -2.236,0.4301c-0.497,0.2867 -0.746,0.6499 -0.746,1.0896c0,0.4014 0.22,0.6976 0.66,0.8888c0.439,0.172 1.175,0.3632 2.208,0.5734c1.089,0.2103 1.978,0.4397 2.666,0.6881c0.707,0.2294 1.319,0.6213 1.835,1.1756c0.516,0.5543 0.774,1.3093 0.774,2.2651c0,1.7203 -0.726,3.0488 -2.179,3.9854c-1.433,0.9366 -3.297,1.4049 -5.591,1.4049z"/>
  <path id="svg_8" fill="url(#paint2_linear)" d="m131.595,31.5573l5.304,8.7162l-5.189,0l-3.67,-5.9924l-2.724,2.2651l-0.746,3.7273l-4.473,0l4.244,-21.2745l4.473,0l-2.38,11.8988l7.397,-6.0498l5.821,0l-8.057,6.7093z"/>
  <path id="svg_9" stroke-width="4.30079" stroke="url(#paint3_linear)" d="m81.0842,15.9024l0,-7.16802c0,-3.16701 2.5674,-5.73438 5.7344,-5.73438l61.6444,0c3.167,0 5.735,2.56737 5.735,5.73438l0,40.14072c0,3.167 -2.568,5.7343 -5.735,5.7343l-10.035,0l3.354,15.6509c0.293,1.3679 -1.346,2.3027 -2.374,1.3538l-15.316,-14.1375l-37.2734,0c-3.167,0 -5.7344,-2.5673 -5.7344,-5.7344l0,-2.8671"/>
 </g>
</svg>